<svg width="347.61875px" height="156.79999999999998px" xmlns="http://www.w3.org/2000/svg" viewBox="76.19062500000001 -3.3999999999999915 347.61875 156.79999999999998" style="background: rgb(17, 24, 39);" preserveAspectRatio="xMidYMid"><defs><linearGradient id="editing-outline-gradient" x1="-0.41354545764260087" x2="1.4135454576426008" y1="0.09326335692419985" y2="0.9067366430758002"><stop offset="0" stop-color="#ffffff"></stop><stop offset="1" stop-color="#009ef7"></stop></linearGradient><filter id="editing-outline" x="-100%" y="-100%" width="300%" height="300%"><feMorphology in="SourceGraphic" operator="dilate" radius="2" result="outline"></feMorphology><feComposite operator="out" in="outline" in2="SourceAlpha"></feComposite></filter></defs><g filter="url(#editing-outline)"><g transform="translate(127.78998947143555, 95.21999931335449)"><path d="M27.26 0.19L10.11 0.19L10.11 0.19Q7.36 0.19 5.76-1.41L5.76-1.41L5.76-1.41Q4.16-3.01 4.16-5.76L4.16-5.76L4.16-38.85L4.16-38.85Q4.86-38.98 6.40-39.20L6.40-39.20L6.40-39.20Q7.94-39.42 9.34-39.42L9.34-39.42L9.34-39.42Q10.82-39.42 11.94-39.20L11.94-39.20L11.94-39.20Q13.06-38.98 13.82-38.40L13.82-38.40L13.82-38.40Q14.59-37.82 14.98-36.80L14.98-36.80L14.98-36.80Q15.36-35.78 15.36-34.11L15.36-34.11L15.36-8.83L30.02-8.83L30.02-8.83Q30.46-8.13 30.85-6.94L30.85-6.94L30.85-6.94Q31.23-5.76 31.23-4.48L31.23-4.48L31.23-4.48Q31.23-1.92 30.14-0.86L30.14-0.86L30.14-0.86Q29.06 0.19 27.26 0.19L27.26 0.19ZM36.16-12.35L36.16-30.66L36.16-30.66Q36.80-30.85 38.18-31.04L38.18-31.04L38.18-31.04Q39.55-31.23 41.02-31.23L41.02-31.23L41.02-31.23Q42.43-31.23 43.55-31.04L43.55-31.04L43.55-31.04Q44.67-30.85 45.44-30.27L45.44-30.27L45.44-30.27Q46.21-29.70 46.62-28.70L46.62-28.70L46.62-28.70Q47.04-27.71 47.04-26.11L47.04-26.11L47.04-12.35L47.04-12.35Q47.04-9.73 48.32-8.61L48.32-8.61L48.32-8.61Q49.60-7.49 52.03-7.49L52.03-7.49L52.03-7.49Q53.50-7.49 54.43-7.74L54.43-7.74L54.43-7.74Q55.36-8 55.87-8.26L55.87-8.26L55.87-30.66L55.87-30.66Q56.51-30.85 57.89-31.04L57.89-31.04L57.89-31.04Q59.26-31.23 60.74-31.23L60.74-31.23L60.74-31.23Q62.14-31.23 63.26-31.04L63.26-31.04L63.26-31.04Q64.38-30.85 65.15-30.27L65.15-30.27L65.15-30.27Q65.92-29.70 66.34-28.70L66.34-28.70L66.34-28.70Q66.75-27.71 66.75-26.11L66.75-26.11L66.75-6.66L66.75-6.66Q66.75-3.46 64.06-1.86L64.06-1.86L64.06-1.86Q61.82-0.45 58.72 0.29L58.72 0.29L58.72 0.29Q55.62 1.02 51.97 1.02L51.97 1.02L51.97 1.02Q48.51 1.02 45.60 0.26L45.60 0.26L45.60 0.26Q42.69-0.51 40.58-2.11L40.58-2.11L40.58-2.11Q38.46-3.71 37.31-6.24L37.31-6.24L37.31-6.24Q36.16-8.77 36.16-12.35L36.16-12.35ZM84.29-20.35L84.29-10.69L84.29-10.69Q84.29-9.02 85.34-8.32L85.34-8.32L85.34-8.32Q86.40-7.62 88.32-7.62L88.32-7.62L88.32-7.62Q89.28-7.62 90.30-7.78L90.30-7.78L90.30-7.78Q91.33-7.94 92.10-8.19L92.10-8.19L92.10-8.19Q92.67-7.49 93.09-6.62L93.09-6.62L93.09-6.62Q93.50-5.76 93.50-4.54L93.50-4.54L93.50-4.54Q93.50-2.11 91.68-0.58L91.68-0.58L91.68-0.58Q89.86 0.96 85.25 0.96L85.25 0.96L85.25 0.96Q79.62 0.96 76.58-1.60L76.58-1.60L76.58-1.60Q73.54-4.16 73.54-9.92L73.54-9.92L73.54-37.31L73.54-37.31Q74.24-37.50 75.55-37.73L75.55-37.73L75.55-37.73Q76.86-37.95 78.34-37.95L78.34-37.95L78.34-37.95Q81.15-37.95 82.72-36.96L82.72-36.96L82.72-36.96Q84.29-35.97 84.29-32.77L84.29-32.77L84.29-28.67L92.67-28.67L92.67-28.67Q93.06-27.97 93.41-26.91L93.41-26.91L93.41-26.91Q93.76-25.86 93.76-24.58L93.76-24.58L93.76-24.58Q93.76-22.34 92.77-21.34L92.77-21.34L92.77-21.34Q91.78-20.35 90.11-20.35L90.11-20.35L84.29-20.35ZM116.74-0.96L116.74-0.96L116.74-0.96Q115.84-0.19 114.30 0.29L114.30 0.29L114.30 0.29Q112.77 0.77 110.66 0.77L110.66 0.77L110.66 0.77Q108.03 0.77 106.11 0.03L106.11 0.03L106.11 0.03Q104.19-0.70 103.55-2.05L103.55-2.05L103.55-2.05Q102.85-3.58 101.92-6.91L101.92-6.91L101.92-6.91Q100.99-10.24 100.10-14.21L100.10-14.21L100.10-14.21Q99.20-18.18 98.40-22.27L98.40-22.27L98.40-22.27Q97.60-26.37 97.15-29.50L97.15-29.50L97.15-29.50Q98.05-30.40 99.55-31.07L99.55-31.07L99.55-31.07Q101.06-31.74 102.85-31.74L102.85-31.74L102.85-31.74Q105.09-31.74 106.53-30.75L106.53-30.75L106.53-30.75Q107.97-29.76 108.29-27.33L108.29-27.33L108.29-27.33Q108.93-22.46 109.38-19.30L109.38-19.30L109.38-19.30Q109.82-16.13 110.11-14.11L110.11-14.11L110.11-14.11Q110.40-12.10 110.56-11.04L110.56-11.04L110.56-11.04Q110.72-9.98 110.85-9.34L110.85-9.34L111.10-9.34L111.10-9.34Q111.30-10.37 111.78-12.32L111.78-12.32L111.78-12.32Q112.26-14.27 112.90-16.77L112.90-16.77L112.90-16.77Q113.54-19.26 114.24-22.18L114.24-22.18L114.24-22.18Q114.94-25.09 115.65-27.97L115.65-27.97L115.65-27.97Q116.93-28.67 118.18-29.06L118.18-29.06L118.18-29.06Q119.42-29.44 121.28-29.44L121.28-29.44L121.28-29.44Q123.52-29.44 125.12-28.74L125.12-28.74L125.12-28.74Q126.72-28.03 127.17-26.56L127.17-26.56L127.17-26.56Q127.94-23.74 128.64-21.09L128.64-21.09L128.64-21.09Q129.34-18.43 129.92-16.16L129.92-16.16L129.92-16.16Q130.50-13.89 130.94-12.13L130.94-12.13L130.94-12.13Q131.39-10.37 131.58-9.34L131.58-9.34L131.90-9.34L131.90-9.34Q132.61-14.27 133.28-19.58L133.28-19.58L133.28-19.58Q133.95-24.90 134.53-30.40L134.53-30.40L134.53-30.40Q135.68-31.10 136.96-31.42L136.96-31.42L136.96-31.42Q138.24-31.74 139.52-31.74L139.52-31.74L139.52-31.74Q141.76-31.74 143.23-30.78L143.23-30.78L143.23-30.78Q144.70-29.82 144.70-27.46L144.70-27.46L144.70-27.46Q144.70-26.43 144.38-24.38L144.38-24.38L144.38-24.38Q144.06-22.34 143.55-19.78L143.55-19.78L143.55-19.78Q143.04-17.22 142.37-14.40L142.37-14.40L142.37-14.40Q141.70-11.58 141.02-8.96L141.02-8.96L141.02-8.96Q140.35-6.34 139.74-4.22L139.74-4.22L139.74-4.22Q139.14-2.11 138.69-0.96L138.69-0.96L138.69-0.96Q137.79-0.19 135.94 0.29L135.94 0.29L135.94 0.29Q134.08 0.77 131.97 0.77L131.97 0.77L131.97 0.77Q126.59 0.77 125.63-1.92L125.63-1.92L125.63-1.92Q125.25-3.07 124.67-4.83L124.67-4.83L124.67-4.83Q124.10-6.59 123.46-8.70L123.46-8.70L123.46-8.70Q122.82-10.82 122.24-13.09L122.24-13.09L122.24-13.09Q121.66-15.36 121.28-17.47L121.28-17.47L121.28-17.47Q120.83-15.23 120.19-12.83L120.19-12.83L120.19-12.83Q119.55-10.43 118.88-8.16L118.88-8.16L118.88-8.16Q118.21-5.89 117.63-4L117.63-4L117.63-4Q117.06-2.11 116.74-0.96ZM166.08 1.02L166.08 1.02L166.08 1.02Q162.30 1.02 159.07-0.03L159.07-0.03L159.07-0.03Q155.84-1.09 153.44-3.20L153.44-3.20L153.44-3.20Q151.04-5.31 149.66-8.51L149.66-8.51L149.66-8.51Q148.29-11.71 148.29-16L148.29-16L148.29-16Q148.29-20.22 149.66-23.26L149.66-23.26L149.66-23.26Q151.04-26.30 153.28-28.26L153.28-28.26L153.28-28.26Q155.52-30.21 158.40-31.14L158.40-31.14L158.40-31.14Q161.28-32.06 164.29-32.06L164.29-32.06L164.29-32.06Q167.68-32.06 170.46-31.04L170.46-31.04L170.46-31.04Q173.25-30.02 175.26-28.22L175.26-28.22L175.26-28.22Q177.28-26.43 178.40-23.94L178.40-23.94L178.40-23.94Q179.52-21.44 179.52-18.50L179.52-18.50L179.52-18.50Q179.52-16.32 178.30-15.17L178.30-15.17L178.30-15.17Q177.09-14.02 174.91-13.70L174.91-13.70L159.10-11.33L159.10-11.33Q159.81-9.22 161.98-8.16L161.98-8.16L161.98-8.16Q164.16-7.10 166.98-7.10L166.98-7.10L166.98-7.10Q169.60-7.10 171.94-7.78L171.94-7.78L171.94-7.78Q174.27-8.45 175.74-9.34L175.74-9.34L175.74-9.34Q176.77-8.70 177.47-7.55L177.47-7.55L177.47-7.55Q178.18-6.40 178.18-5.12L178.18-5.12L178.18-5.12Q178.18-2.24 175.49-0.83L175.49-0.83L175.49-0.83Q173.44 0.26 170.88 0.64L170.88 0.64L170.88 0.64Q168.32 1.02 166.08 1.02ZM164.29-24.13L164.29-24.13L164.29-24.13Q162.75-24.13 161.63-23.62L161.63-23.62L161.63-23.62Q160.51-23.10 159.81-22.30L159.81-22.30L159.81-22.30Q159.10-21.50 158.75-20.51L158.75-20.51L158.75-20.51Q158.40-19.52 158.34-18.50L158.34-18.50L169.28-20.29L169.28-20.29Q169.09-21.57 167.87-22.85L167.87-22.85L167.87-22.85Q166.66-24.13 164.29-24.13ZM201.22 1.02L201.22 1.02L201.22 1.02Q197.44 1.02 194.21-0.03L194.21-0.03L194.21-0.03Q190.98-1.09 188.58-3.20L188.58-3.20L188.58-3.20Q186.18-5.31 184.80-8.51L184.80-8.51L184.80-8.51Q183.42-11.71 183.42-16L183.42-16L183.42-16Q183.42-20.22 184.80-23.26L184.80-23.26L184.80-23.26Q186.18-26.30 188.42-28.26L188.42-28.26L188.42-28.26Q190.66-30.21 193.54-31.14L193.54-31.14L193.54-31.14Q196.42-32.06 199.42-32.06L199.42-32.06L199.42-32.06Q202.82-32.06 205.60-31.04L205.60-31.04L205.60-31.04Q208.38-30.02 210.40-28.22L210.40-28.22L210.40-28.22Q212.42-26.43 213.54-23.94L213.54-23.94L213.54-23.94Q214.66-21.44 214.66-18.50L214.66-18.50L214.66-18.50Q214.66-16.32 213.44-15.17L213.44-15.17L213.44-15.17Q212.22-14.02 210.05-13.70L210.05-13.70L194.24-11.33L194.24-11.33Q194.94-9.22 197.12-8.16L197.12-8.16L197.12-8.16Q199.30-7.10 202.11-7.10L202.11-7.10L202.11-7.10Q204.74-7.10 207.07-7.78L207.07-7.78L207.07-7.78Q209.41-8.45 210.88-9.34L210.88-9.34L210.88-9.34Q211.90-8.70 212.61-7.55L212.61-7.55L212.61-7.55Q213.31-6.40 213.31-5.12L213.31-5.12L213.31-5.12Q213.31-2.24 210.62-0.83L210.62-0.83L210.62-0.83Q208.58 0.26 206.02 0.64L206.02 0.64L206.02 0.64Q203.46 1.02 201.22 1.02ZM199.42-24.13L199.42-24.13L199.42-24.13Q197.89-24.13 196.77-23.62L196.77-23.62L196.77-23.62Q195.65-23.10 194.94-22.30L194.94-22.30L194.94-22.30Q194.24-21.50 193.89-20.51L193.89-20.51L193.89-20.51Q193.54-19.52 193.47-18.50L193.47-18.50L204.42-20.29L204.42-20.29Q204.22-21.57 203.01-22.85L203.01-22.85L203.01-22.85Q201.79-24.13 199.42-24.13ZM230.78-20.35L230.78-10.69L230.78-10.69Q230.78-9.02 231.84-8.32L231.84-8.32L231.84-8.32Q232.90-7.62 234.82-7.62L234.82-7.62L234.82-7.62Q235.78-7.62 236.80-7.78L236.80-7.78L236.80-7.78Q237.82-7.94 238.59-8.19L238.59-8.19L238.59-8.19Q239.17-7.49 239.58-6.62L239.58-6.62L239.58-6.62Q240-5.76 240-4.54L240-4.54L240-4.54Q240-2.11 238.18-0.58L238.18-0.58L238.18-0.58Q236.35 0.96 231.74 0.96L231.74 0.96L231.74 0.96Q226.11 0.96 223.07-1.60L223.07-1.60L223.07-1.60Q220.03-4.16 220.03-9.92L220.03-9.92L220.03-37.31L220.03-37.31Q220.74-37.50 222.05-37.73L222.05-37.73L222.05-37.73Q223.36-37.95 224.83-37.95L224.83-37.95L224.83-37.95Q227.65-37.95 229.22-36.96L229.22-36.96L229.22-36.96Q230.78-35.97 230.78-32.77L230.78-32.77L230.78-28.67L239.17-28.67L239.17-28.67Q239.55-27.97 239.90-26.91L239.90-26.91L239.90-26.91Q240.26-25.86 240.26-24.58L240.26-24.58L240.26-24.58Q240.26-22.34 239.26-21.34L239.26-21.34L239.26-21.34Q238.27-20.35 236.61-20.35L236.61-20.35L230.78-20.35Z" fill="url(#editing-outline-gradient)"></path></g></g><style>text {
  font-size: 64px;
  font-family: Arial Black;
  dominant-baseline: central;
  text-anchor: middle;
}</style></svg>